<?xml version="1.0" encoding="UTF-8"?>
<svg width="135px" height="24px" viewBox="0 0 135 24" version="1.1" xmlns="http://www.w3.org/2000/svg" xmlns:xlink="http://www.w3.org/1999/xlink">
    <!-- Generator: Sketch 59.1 (86144) - https://sketch.com -->
    <title>Group 3</title>
    <desc>Created with Sketch.</desc>
    <g id="Symbols" stroke="none" stroke-width="1" fill="none" fill-rule="evenodd">
        <g id="Header" transform="translate(-30.000000, -20.000000)" fill="#EE4D64">
            <g id="Group-8">
                <g id="Group-3" transform="translate(30.000000, 20.000000)">
                    <text id="GYMPOINT" font-family="Roboto-Bold, Roboto" font-size="15" font-weight="bold">
                        <tspan x="58" y="19">GYMPOINT</tspan>
                    </text>
                    <g id="Group-2" fill-rule="nonzero">
                        <g id="noun_Gym_1617325" transform="translate(0.058011, 0.000000)">
                            <g id="Group" transform="translate(0.237095, 0.000000)">
                                <path d="M41.9508048,5.35477723 C41.4553958,5.35477723 40.9859746,5.46801879 40.5670112,5.66991057 C40.462574,3.99982532 39.0714333,2.67298647 37.3755424,2.67298647 C36.8792226,2.67298647 36.409012,2.78659234 35.9894415,2.98921275 C35.8703708,1.33333583 34.4859701,0.0221625564 32.8002799,0.0221625564 C31.0366869,0.0221625564 29.6018891,1.45696039 29.6018891,3.22061413 L29.6018891,8.52232267 C29.6018891,9.02532162 30.0096801,9.43311266 30.5126791,9.43311266 C31.015678,9.43311266 31.4234691,9.02532162 31.4234691,8.52232267 L31.4234691,3.22061413 C31.4234691,2.46137959 32.0411061,1.84374254 32.8002799,1.84374254 C33.5595145,1.84374254 34.1771515,2.46137959 34.1771515,3.22061413 L34.1771515,17.8091017 L34.1771515,20.4599256 C34.1771515,21.2191602 33.5595145,21.8367972 32.8002799,21.8367972 C32.0411061,21.8367972 31.4234691,21.2191602 31.4234691,20.4599256 L31.4234691,15.1582171 C31.4234691,14.6552181 31.015678,14.2474271 30.5126791,14.2474271 L18.2283687,14.2474271 C17.7253698,14.2474271 17.3175787,14.6552181 17.3175787,15.1582171 C17.3175787,15.6612161 17.7253698,16.0690071 18.2283687,16.0690071 L29.6018891,16.0690071 L29.6018891,20.4599256 C29.6018891,22.2235794 31.0366869,23.6583772 32.8002799,23.6583772 C34.4860308,23.6583772 35.8704316,22.3472039 35.9894415,20.691327 C36.409012,20.8939474 36.8792226,21.0075533 37.3755424,21.0075533 C39.0714333,21.0075533 40.462574,19.680593 40.5670112,18.0106292 C40.9859746,18.212521 41.4553958,18.3257625 41.9508048,18.3257625 C43.7143978,18.3257625 45.1492564,16.8909647 45.1492564,15.1273717 L45.1492564,8.55310737 C45.1492564,6.78951435 43.7143978,5.35477723 41.9508048,5.35477723 Z M38.7524747,17.8091017 C38.7524747,18.5683363 38.1348376,19.1859733 37.3756031,19.1859733 C36.6163686,19.1859733 35.9987315,18.5683363 35.9987315,17.8091017 L35.9987315,5.87143804 C35.9987315,5.1122035 36.6163686,4.49456645 37.3756031,4.49456645 C38.1348376,4.49456645 38.7524747,5.1122035 38.7524747,5.87143804 L38.7524747,17.8091017 Z M43.3276764,15.1273717 C43.3276764,15.8865455 42.7099786,16.5041825 41.9508048,16.5041825 C41.191631,16.5041825 40.573994,15.8865455 40.573994,15.1273717 L40.573994,8.55310737 C40.573994,7.79399427 41.191631,7.17635722 41.9508048,7.17635722 C42.7099786,7.17635722 43.3276764,7.79399427 43.3276764,8.55310737 L43.3276764,15.1273717 Z" id="Shape"></path>
                                <path d="M14.6625045,14.2474271 C14.1595055,14.2474271 13.7517145,14.6552181 13.7517145,15.1582171 L13.7517145,20.4599256 C13.7517145,21.2191602 13.1340774,21.8367972 12.3748429,21.8367972 C11.6156084,21.8367972 10.9979713,21.2191602 10.9979713,20.4599256 L10.9979713,17.8091017 L10.9979713,5.87143804 L10.9979713,3.22061413 C10.9979713,2.46137959 11.6156084,1.84374254 12.3748429,1.84374254 C13.1340774,1.84374254 13.7517145,2.46137959 13.7517145,3.22061413 L13.7517145,8.52232267 C13.7517145,9.02532162 14.1595055,9.43311266 14.6625045,9.43311266 L26.9468756,9.43311266 C27.4498745,9.43311266 27.8576655,9.02532162 27.8576655,8.52232267 C27.8576655,8.01932371 27.4498745,7.61153267 26.9468756,7.61153267 L15.5732945,7.61153267 L15.5732945,3.22061413 C15.5732945,1.45696039 14.1384966,0.0221625564 12.3748429,0.0221625564 C10.6890921,0.0221625564 9.30475199,1.33333583 9.18568138,2.98921275 C8.76611079,2.78659234 8.29583955,2.67298647 7.79951973,2.67298647 C6.10362877,2.67298647 4.71248813,3.99994676 4.60805088,5.66991057 C4.18908748,5.46801879 3.71966632,5.35477723 3.22425729,5.35477723 C1.46060355,5.35477723 0.0258057164,6.78957507 0.0258057164,8.55322881 L0.0258057164,15.1273717 C0.0258057164,16.8909647 1.46060355,18.3257018 3.22425729,18.3257018 C3.71966632,18.3257018 4.18908748,18.2124603 4.60805088,18.0105685 C4.71248813,19.6806537 6.10362877,21.0074926 7.79951973,21.0074926 C8.29583955,21.0074926 8.76605007,20.8938867 9.18568138,20.6912663 C9.30475199,22.3471432 10.6890921,23.6583165 12.3748429,23.6583165 C14.1384966,23.6583165 15.5732945,22.2235187 15.5732945,20.4598649 L15.5732945,15.1581564 C15.5732945,14.6551574 15.1655641,14.2474271 14.6625045,14.2474271 Z M3.22437873,16.5041825 C2.46520491,16.5041825 1.84750714,15.8865455 1.84750714,15.1274324 L1.84750714,8.55322881 C1.84750714,7.79399427 2.46514419,7.17635722 3.22437873,7.17635722 C3.98355254,7.17635722 4.6011896,7.79399427 4.6011896,8.55322881 L4.6011896,15.1273717 C4.60112888,15.8865455 3.98349182,16.5041825 3.22437873,16.5041825 Z M7.79958045,19.1859733 C7.04040663,19.1859733 6.42270886,18.5683363 6.42270886,17.8091017 L6.42270886,5.87143804 C6.42270886,5.1122035 7.04034591,4.49456645 7.79958045,4.49456645 C8.55881498,4.49456645 9.17645204,5.1122035 9.17645204,5.87143804 L9.17645204,17.8091017 C9.17645204,18.5683363 8.55881498,19.1859733 7.79958045,19.1859733 Z" id="Shape"></path>
                                <path d="M13.7491035,11.89346 L13.7491035,12.1988175 C13.7491035,12.7018165 14.1568946,13.1096075 14.6598935,13.1096075 C15.1628925,13.1096075 15.5706835,12.7018165 15.5706835,12.1988175 L15.5706835,11.89346 C15.5706835,11.3904611 15.1628925,10.98267 14.6598935,10.98267 C14.1568946,10.98267 13.7491035,11.3904611 13.7491035,11.89346 Z" id="Path"></path>
                                <path d="M31.4235298,11.7921802 L31.4235298,11.4868226 C31.4235298,10.9838237 31.015678,10.5760327 30.5127398,10.5760327 C30.0096801,10.5760327 29.6019498,10.9838237 29.6019498,11.4868226 L29.6019498,11.7921802 C29.6019498,12.2951791 30.0096801,12.7029702 30.5127398,12.7029702 C31.0157388,12.7029702 31.4235298,12.2951791 31.4235298,11.7921802 Z" id="Path"></path>
                            </g>
                        </g>
                    </g>
                </g>
            </g>
        </g>
    </g>
</svg>